<?xml version="1.0" encoding="utf-8"?>
<!-- Generator: Adobe Illustrator 24.1.0, SVG Export Plug-In . SVG Version: 6.00 Build 0)  -->
<svg version="1.1" id="Capa_1" xmlns="http://www.w3.org/2000/svg" xmlns:xlink="http://www.w3.org/1999/xlink" x="0px" y="0px"
	 viewBox="0 0 255.12 141.73" style="enable-background:new 0 0 255.12 141.73;" xml:space="preserve">
<g>
	<path d="M39,124.76c0.37-0.08,0.74-0.17,1.12-0.23c2.08-0.33,2.47-0.61,2.81-2.73c0.26-1.62,0.39-3.27,0.4-4.91
		c0.04-10.69,0.02-21.38,0.02-32.07c0-0.69-0.01-1.39-0.09-2.07c-0.27-2.24-1.18-3.08-3.44-3.27c-0.57-0.05-1.14-0.13-1.71-0.2
		c-0.01-0.13-0.03-0.26-0.04-0.39c0.36-0.11,0.72-0.31,1.08-0.31c6.01,0.04,12.03,0.09,18.04,0.21c1.11,0.02,2.23,0.3,3.31,0.6
		c6.52,1.82,9.69,7.57,7.89,14.24c-1.01,3.76-3.27,6.73-5.96,9.43c-0.3,0.3-0.66,0.56-0.96,0.81c0.09,0.26,0.1,0.4,0.18,0.49
		c3.96,4.92,7.88,9.87,11.9,14.74c2.72,3.29,6.05,5.55,10.55,5.53c0.13,0,0.26,0.04,0.38,0.08c0.08,0.03,0.14,0.09,0.44,0.31
		c-0.49,0.18-0.83,0.4-1.17,0.4c-2.38,0.01-4.76,0.01-7.14-0.05c-3.09-0.09-5.6-1.45-7.52-3.81c-2.48-3.05-4.87-6.18-7.26-9.31
		c-1.44-1.89-2.77-3.87-4.24-5.74c-0.37-0.47-1.1-0.87-1.7-0.91c-2.16-0.13-4.33-0.09-6.49-0.14c-0.66-0.02-1.1,0.12-1.08,0.9
		c0.14,5.06,0.21,10.12,0.46,15.17c0.1,2.1,0.98,2.73,3.09,2.92c0.79,0.07,1.58,0.18,2.37,0.27c0.01,0.13,0.03,0.27,0.04,0.4
		c-0.4,0.11-0.79,0.3-1.19,0.31c-4.33,0.02-8.65,0.02-12.98,0c-0.38,0-0.75-0.17-1.13-0.26C38.98,125.03,38.99,124.9,39,124.76z
		 M48.31,91.76c0,3.07,0.07,6.14-0.03,9.21c-0.05,1.4,0.55,2.03,1.79,2.18c1.84,0.22,3.69,0.46,5.54,0.52
		c3.36,0.11,5.66-1.52,6.98-4.58c1.23-2.88,1.37-5.89,0.95-8.92c-0.75-5.43-3.83-8.79-8.77-9.49c-1.64-0.23-3.35,0.05-5.03,0.07
		c-1.13,0.02-1.45,0.62-1.43,1.68C48.34,85.53,48.31,88.65,48.31,91.76z"/>
	<path d="M162.37,78.79c5,0,9.99,0,14.99,0c0.02,0.12,0.05,0.24,0.07,0.36c-0.35,0.11-0.7,0.27-1.06,0.32
		c-2.37,0.3-3.1,1.02-3.18,3.41c-0.11,3.11-0.18,6.23-0.17,9.34c0.02,5.62-0.05,11.26,0.23,16.87c0.12,2.46,0.7,5,1.6,7.29
		c2.06,5.24,6.69,7.8,12.93,7.56c5.01-0.19,9.4-3.47,11.14-8.35c1.21-3.39,1.45-6.94,1.46-10.49c0.01-7.23-0.04-14.45-0.14-21.68
		c-0.04-2.93-0.96-3.77-3.94-3.97c-0.42-0.03-0.84-0.16-1.26-0.24c0.01-0.14,0.03-0.28,0.04-0.42c4.52,0,9.03,0,13.55,0
		c0.02,0.13,0.05,0.25,0.07,0.38c-0.45,0.11-0.89,0.26-1.34,0.31c-1.88,0.24-2.67,0.87-2.87,2.75c-0.2,1.89-0.18,3.8-0.21,5.7
		c-0.08,6.58-0.04,13.16-0.24,19.73c-0.07,2.26-0.51,4.57-1.13,6.75c-1.96,6.84-7.95,11.53-15.11,11.77
		c-2.53,0.09-5.14-0.03-7.59-0.6c-6.86-1.59-10.71-6.2-11.9-13.01c-0.45-2.58-0.55-5.24-0.6-7.87c-0.12-7.1-0.09-14.19-0.2-21.29
		c-0.04-2.95-0.95-3.75-3.95-3.96c-0.42-0.03-0.84-0.16-1.26-0.25C162.34,79.06,162.35,78.92,162.37,78.79z"/>
	<path d="M212.75,78.75c4.98,0,9.97,0,14.95,0c0.03,0.13,0.05,0.26,0.08,0.39c-0.43,0.1-0.86,0.26-1.3,0.3
		c-1.49,0.16-1.9,0.74-1.49,2.16c0.05,0.17,0.09,0.34,0.18,0.49c2.81,5.11,5.62,10.22,8.53,15.51c0.39-0.51,0.64-0.78,0.83-1.08
		c2.64-4.21,5.29-8.42,7.91-12.65c0.4-0.65,0.73-1.38,0.96-2.11c0.45-1.4-0.07-2.1-1.56-2.28c-0.55-0.07-1.1-0.16-1.64-0.24
		c0.02-0.15,0.03-0.31,0.05-0.46c4.15,0,8.29,0,12.44,0c0.03,0.11,0.05,0.21,0.08,0.32c-0.35,0.11-0.69,0.32-1.04,0.33
		c-1.79,0.05-3.15,0.88-4.18,2.27c-0.98,1.31-1.93,2.66-2.84,4.03c-2.91,4.35-5.79,8.72-8.7,13.07c-0.38,0.57-0.64,1.02-0.2,1.74
		c4.06,6.69,8.09,13.4,12.12,20.11c1.35,2.24,3.21,3.71,5.92,3.91c0.29,0.02,0.57,0.15,0.93,0.49c-0.3,0.13-0.6,0.37-0.89,0.36
		c-3.72-0.05-7.44-0.14-11.16-0.24c-0.19,0-0.38-0.16-0.79-0.34c1.78-1.09,0.89-2.21,0.24-3.35c-3.09-5.36-6.17-10.72-9.26-16.07
		c-0.23-0.4-0.5-0.78-0.84-1.3c-3.33,5.7-6.58,11.25-9.81,16.82c-0.25,0.44-0.39,0.96-0.49,1.46c-0.31,1.46-0.02,1.86,1.43,2.13
		c0.35,0.07,0.69,0.18,1.04,0.28c-0.02,0.13-0.03,0.26-0.05,0.39c-4.24,0-8.48,0-12.72,0c-0.01-0.14-0.03-0.28-0.04-0.41
		c0.52-0.1,1.03-0.24,1.55-0.28c1.74-0.14,3.15-0.91,4.22-2.26c0.75-0.95,1.47-1.93,2.12-2.95c3.55-5.58,7.06-11.19,10.64-16.76
		c0.49-0.76,0.51-1.3,0.04-2.08c-3.18-5.25-6.28-10.55-9.44-15.82c-0.58-0.96-1.23-1.89-1.92-2.77c-1.16-1.47-2.72-2.23-4.58-2.4
		c-0.44-0.04-0.88-0.16-1.32-0.24C212.72,79.08,212.74,78.91,212.75,78.75z"/>
	<path d="M129.18,124.8c-0.89,0.74-13.07,0.76-14.07,0.02c0.73-0.12,1.28-0.27,1.84-0.29c2.01-0.08,3.47-1.05,4.38-2.77
		c0.68-1.29,1.25-2.66,1.75-4.03c4.6-12.53,9.17-25.06,13.75-37.59c0.3-0.83,0.7-1.63,1.05-2.44c0.15-0.02,0.3-0.05,0.45-0.07
		c0.37,0.72,0.81,1.41,1.1,2.16c3.64,9.43,7.25,18.86,10.89,28.29c1.26,3.26,2.54,6.52,3.86,9.76c0.42,1.04,0.94,2.04,1.47,3.03
		c1.21,2.25,2.99,3.66,5.65,3.74c0.32,0.01,0.64,0.12,1.03,0.19c-0.85,0.83-10.95,0.87-12.78,0.08c1.4-0.77,0.96-1.82,0.54-2.9
		c-1.73-4.52-3.46-9.03-5.12-13.58c-0.33-0.91-0.76-1.3-1.76-1.28c-3.89,0.05-7.79,0.02-11.68,0.02c-0.67,0-1.27,0-1.54,0.83
		c-1.36,4.19-2.76,8.36-4.14,12.54c-0.11,0.33-0.16,0.67-0.21,1.01c-0.3,2.27,0.19,2.87,2.47,3.1
		C128.41,124.64,128.7,124.71,129.18,124.8z M137.38,87.05c-0.16,0-0.32,0-0.48,0c-1.92,5.9-3.84,11.79-5.81,17.82
		c4.26,0,8.29,0,12.56,0C141.53,98.83,139.46,92.94,137.38,87.05z"/>
	<path d="M206.28,62.05c-0.99,0.74-11.01,0.71-12.81-0.05c1.58-0.75,0.98-1.81,0.58-2.87c-1.72-4.52-3.45-9.04-5.11-13.59
		c-0.34-0.92-0.77-1.29-1.77-1.27c-3.9,0.05-7.79,0.04-11.69,0.01c-0.85-0.01-1.34,0.23-1.62,1.1c-1.23,3.78-2.54,7.53-3.78,11.3
		c-0.26,0.77-0.43,1.59-0.52,2.4c-0.19,1.78,0.37,2.45,2.15,2.68c0.41,0.05,0.82,0.09,1.23,0.13c0.02,0.13,0.04,0.26,0.06,0.39
		c-0.38,0.11-0.77,0.31-1.15,0.31c-3.81,0.02-7.61,0.02-11.42,0c-0.41,0-0.81-0.19-1.22-0.29c0.01-0.12,0.01-0.25,0.02-0.37
		c0.61-0.09,1.22-0.23,1.84-0.26c1.79-0.09,3.18-0.92,4.04-2.44c0.74-1.31,1.35-2.71,1.87-4.12c4.69-12.77,9.35-25.56,14.03-38.34
		c0.24-0.67,0.6-1.29,0.9-1.94c0.14-0.01,0.27-0.03,0.41-0.04c0.34,0.65,0.76,1.27,1.02,1.94c3.66,9.47,7.29,18.95,10.94,28.42
		c1.24,3.22,2.51,6.44,3.81,9.64c0.44,1.08,0.98,2.12,1.52,3.15c1.21,2.32,3.03,3.74,5.74,3.81c0.21,0.01,0.43,0.05,0.64,0.09
		C206.04,61.87,206.11,61.94,206.28,62.05z M187.61,42.01c-2.13-6.04-4.2-11.93-6.28-17.82c-0.16,0-0.32,0.01-0.47,0.01
		c-1.92,5.9-3.84,11.8-5.8,17.81C179.35,42.01,183.37,42.01,187.61,42.01z"/>
	<path d="M93.66,62.34c-4.56,0-9.11,0-13.67,0c-0.02-0.13-0.03-0.26-0.05-0.39c0.55-0.1,1.1-0.26,1.65-0.28
		c2.07-0.08,3.52-1.11,4.46-2.87c0.57-1.06,1.04-2.19,1.45-3.32c4.68-12.77,9.34-25.55,14.02-38.33c0.29-0.79,0.67-1.55,1.01-2.33
		c0.15-0.02,0.3-0.05,0.45-0.07c0.37,0.72,0.81,1.41,1.1,2.16c3.64,9.43,7.26,18.87,10.89,28.3c1.2,3.1,2.4,6.2,3.65,9.28
		c0.49,1.2,1.07,2.36,1.68,3.5c1.2,2.26,2.99,3.66,5.65,3.74c0.32,0.01,0.64,0.11,1.03,0.19c-0.83,0.83-10.87,0.88-12.78,0.09
		c1.38-0.77,0.97-1.82,0.55-2.9c-1.74-4.56-3.48-9.12-5.16-13.7c-0.33-0.89-0.79-1.18-1.71-1.17c-3.89,0.04-7.79,0.04-11.68,0
		c-0.94-0.01-1.4,0.32-1.69,1.2c-1.18,3.61-2.43,7.2-3.63,10.81c-0.27,0.82-0.46,1.67-0.58,2.52c-0.31,2.08,0.25,2.76,2.33,2.99
		c0.34,0.04,0.67,0.08,1.01,0.12C93.65,62.05,93.66,62.2,93.66,62.34z M102.05,24.23c-0.16-0.01-0.32-0.01-0.48-0.02
		c-1.92,5.89-3.85,11.78-5.81,17.78c4.25,0,8.3,0,12.53,0C106.17,35.95,104.11,30.09,102.05,24.23z"/>
	<path d="M26.09,78.31c-0.29,2.61-0.59,5.26-0.88,7.92c-0.15,0.02-0.3,0.03-0.46,0.05c-0.11-0.44-0.29-0.87-0.33-1.31
		c-0.2-2.24-0.86-3.27-3.07-3.51c-3.26-0.34-6.55-0.35-9.83-0.43c-0.23-0.01-0.67,0.52-0.67,0.81c-0.04,5.54-0.02,11.07-0.04,16.61
		c0,0.68,0.27,0.91,0.93,0.9c3.2-0.05,6.41,0.03,9.6-0.18c1.23-0.08,2.42-0.82,3.74-1.29c-0.27,2.78-0.55,5.73-0.84,8.67
		c-0.16,0-0.31,0.01-0.47,0.01c-0.06-0.38-0.14-0.76-0.17-1.15c-0.21-2.34-1.16-3.39-3.5-3.54c-2.76-0.18-5.53-0.2-8.3-0.31
		c-0.72-0.03-1,0.22-0.99,0.96c0.03,5.49-0.01,10.99,0.07,16.48c0.04,2.6,0.99,3.74,3.54,3.92c2.74,0.19,5.52,0.12,8.27-0.1
		c2.06-0.16,3.32-1.52,3.79-3.55c0.17-0.72,0.37-1.43,0.56-2.14c0.13,0.01,0.26,0.02,0.39,0.04c0.07,0.3,0.24,0.61,0.21,0.9
		c-0.23,1.93-0.49,3.86-0.75,5.79c-0.21,1.5-1.27,1.8-2.55,1.77c-3.85-0.07-7.7-0.15-11.55-0.18c-3.28-0.03-6.57,0-9.86-0.02
		c-0.55,0-1.11-0.1-1.66-0.15c-0.01-0.15-0.02-0.3-0.03-0.45c0.41-0.1,0.82-0.24,1.24-0.31c1.87-0.29,2.41-0.72,2.67-2.58
		c0.22-1.58,0.38-3.18,0.38-4.78c0.01-11.29,0.02-22.58-0.06-33.87c-0.02-2.82-0.99-3.65-3.79-3.83c-0.47-0.03-0.94-0.16-1.41-0.24
		c0-0.15-0.01-0.3-0.01-0.45c0.55-0.07,1.1-0.21,1.65-0.2c6.4,0.04,12.81,0.13,19.21,0.14C22.73,78.71,24.35,78.46,26.09,78.31z"/>
	<path d="M84.8,78.75c0.56-0.06,1.11-0.19,1.67-0.18c6.36,0.04,12.72,0.13,19.08,0.14c1.63,0,3.25-0.24,5.02-0.38
		c-0.29,2.59-0.58,5.25-0.88,7.92c-0.17,0-0.34,0-0.51,0.01c-0.1-0.55-0.23-1.1-0.31-1.66c-0.27-1.94-0.83-2.8-2.77-3.06
		c-2.69-0.35-5.42-0.42-8.14-0.52c-2.69-0.1-2.69-0.05-2.69,2.62c0,4.76,0.04,9.52-0.03,14.28c-0.02,1.17,0.35,1.49,1.48,1.44
		c1.94-0.09,3.9,0,5.84-0.07c2.36-0.08,4.88,0.44,6.99-1.55c-0.27,2.93-0.54,5.86-0.81,8.79c-0.15,0.01-0.29,0.02-0.44,0.03
		c-0.09-0.36-0.22-0.72-0.25-1.09c-0.2-2.44-1.13-3.46-3.54-3.61c-2.68-0.16-5.36-0.18-8.04-0.31c-0.88-0.04-1.23,0.22-1.22,1.16
		c0.04,5.15,0.01,10.3,0.03,15.45c0,0.6,0.1,1.21,0.21,1.8c0.32,1.78,1.08,2.78,2.83,2.88c2.96,0.16,5.96,0.18,8.92-0.03
		c2.27-0.17,3.4-1.84,3.85-3.98c0.12-0.56,0.29-1.11,0.44-1.67c0.13,0,0.27,0,0.4,0.01c0.06,0.41,0.21,0.82,0.17,1.22
		c-0.19,1.67-0.39,3.35-0.68,5.01c-0.34,1.95-0.65,2.23-2.67,2.21c-4.11-0.03-8.22-0.16-12.33-0.2c-3.03-0.03-6.05,0.02-9.08,0.01
		c-0.55,0-1.1-0.1-1.64-0.16c-0.01-0.15-0.01-0.31-0.02-0.46c0.51-0.11,1.02-0.29,1.53-0.31c1.41-0.07,2.16-0.88,2.33-2.17
		c0.24-1.8,0.49-3.61,0.5-5.42c0.05-10.73,0.03-21.46,0.03-32.19c0-0.6-0.03-1.21-0.11-1.81c-0.29-2.47-1.16-3.26-3.69-3.43
		c-0.49-0.03-0.98-0.13-1.47-0.19C84.81,79.1,84.81,78.93,84.8,78.75z"/>
	<path d="M76.4,27.83c-0.1-0.81-0.16-1.63-0.29-2.44c-0.44-2.8-1.89-4.87-4.46-6.13c-4.24-2.08-8.75-2.62-13.39-2.22
		c-1.59,0.14-3.19,0.37-4.73,0.76c-5.38,1.37-9.15,4.72-10.99,9.91c-2.44,6.86-2.48,13.8,0.78,20.42
		c4.02,8.16,10.72,12.44,19.85,12.71c2.06,0.06,4.15-0.14,6.18-0.48c3.93-0.67,6.38-3.04,7.3-6.96c0.11-0.46,0.25-0.91,0.38-1.36
		c0.01-0.03,0.06-0.06,0.3-0.29c0,0.55,0.05,0.93-0.01,1.3c-0.37,2.22-0.78,4.42-1.13,6.64c-0.21,1.33-0.99,2.1-2.25,2.34
		c-1.95,0.37-3.9,0.8-5.88,0.96c-5.59,0.44-11.18,0.38-16.53-1.6c-9.4-3.47-14.61-10.22-15.51-20.24
		c-0.63-6.98,1.27-13.19,5.84-18.51c3.94-4.58,9.18-6.58,15.04-7.27c5.88-0.69,11.65,0.1,17.41,1.15c0.96,0.18,2.25,0.07,2.77,0.65
		c0.45,0.5-0.01,1.79-0.05,2.73c-0.08,2.16-0.15,4.32-0.24,6.48c-0.02,0.49-0.09,0.98-0.14,1.47C76.58,27.85,76.49,27.84,76.4,27.83
		z"/>
	<path d="M132.72,51.97c0.06,0.35,0.15,0.71,0.17,1.06c0.25,4.51,2.44,7.13,6.9,7.9c1.5,0.26,3.14,0.3,4.63,0
		c5.85-1.16,8.58-7.56,5.45-12.89c-0.94-1.61-2.3-3.03-3.67-4.32c-2.24-2.1-4.7-3.95-6.98-6.01c-2.76-2.5-5.09-5.29-5.84-9.11
		c-1.34-6.79,2.67-12.43,9.54-13.5c3.9-0.61,7.65,0.15,11.23,0.82c0,2.8,0,5.51,0,8.23c-0.17,0.01-0.34,0.03-0.51,0.04
		c-0.14-0.5-0.34-0.99-0.4-1.5c-0.32-2.74-1.87-4.53-4.47-5.08c-1.95-0.41-4.07-0.65-6.01-0.33c-5.01,0.84-7.29,6.64-4.46,11.07
		c0.87,1.36,2.05,2.58,3.27,3.66c2.33,2.06,4.83,3.93,7.19,5.96c2.74,2.37,5.2,4.99,6.21,8.61c2.36,8.48-3.25,16.19-12.21,16.79
		c-3.31,0.22-6.56-0.02-9.67-1.34c-1.01-0.43-1.49-1.05-1.43-2.17c0.13-2.24,0.18-4.49,0.3-6.74c0.02-0.39,0.2-0.77,0.3-1.16
		C132.41,51.96,132.57,51.97,132.72,51.97z"/>
</g>
</svg>
